<?xml version="1.0" encoding="utf-8"?>
<!-- Generator: Adobe Illustrator 28.2.0, SVG Export Plug-In . SVG Version: 6.00 Build 0)  -->
<svg version="1.1" id="Layer_1" xmlns="http://www.w3.org/2000/svg" xmlns:xlink="http://www.w3.org/1999/xlink" x="0px" y="0px"
	 viewBox="0 0 175 75" style="enable-background:new 0 0 175 75;" xml:space="preserve">
<style type="text/css">
	.st0{fill:#2B2D42;}
	.st1{fill:#F9183E;}
	.st2{fill:#EFAB00;}
</style>
<g>
	<g>
		<path class="st0" d="M47.4,48.9l18.9,23.4H55L37.5,49.8h-1.7v22.5h-9.2v-55h10.8c8.1,0,13.9,1.3,17.5,4.1c4,3,6,7,6,12
			c0,3.9-1.3,7.2-3.7,10C54.7,46.3,51.4,48.1,47.4,48.9z M35.9,42.6h3c8.7,0,13.1-3,13.1-9c0-5.6-4.3-8.5-12.8-8.5h-3.3L35.9,42.6
			L35.9,42.6z"/>
	</g>
	<path class="st0" d="M76,72.3c-8.1,0-14.6-4.4-16.5-13l-2.1-12.6l7.2-1.6l2.3,13.4c1.8,5.3,4,7.7,8.7,7.7c4.3,0,6.8-2,6.8-8V17.4
		h8.1V25l0,0v33.2C90.4,66.5,86.2,72.2,76,72.3z"/>
	<g>
		<path class="st0" d="M91.8,72.3l0.1-54.9h1.5l24.7,31.8l24-31.8h1.5v54.9h-7.2v-38l-18.4,24.9l-18.8-25v38.1L91.8,72.3L91.8,72.3
			L91.8,72.3z"/>
	</g>
	<g>
		<path class="st1" d="M156.8,62.1c-5.7,3-7.5,5.4-9.7,12.9c-2.2-7.5-4-10-9.7-12.9c5.7-3,7.5-5.4,9.7-12.9
			C149.3,56.7,151.2,59.1,156.8,62.1z"/>
	</g>
	<g>
		<path class="st2" d="M36.2,15.2c-6.6,3.5-8.7,6.3-11.3,15.1c-2.6-8.8-4.7-11.6-11.3-15.1c6.6-3.4,8.7-6.3,11.3-15.2
			C27.5,8.9,29.6,11.8,36.2,15.2z"/>
	</g>
</g>
</svg>